<svg width="100%" height="100px" viewBox="0 0 1201 202" version="1.1" xmlns="http://www.w3.org/2000/svg" xmlns:xlink="http://www.w3.org/1999/xlink">
    <g id="Page-2" stroke="none" stroke-width="1" fill="none" fill-rule="evenodd">
        <path d="M0,201 C172.275833,201 154.261925,1 301,1 C447.738075,1 456.612418,181 541,181 C625.387582,181 655.634919,21 721,21 C786.365081,21 802.756846,171.273437 841,171.273437 C879.243154,171.273438 892.953369,34.4453125 921,34.4453125 C949.046631,34.4453125 970.592069,161 1001,161 C1031.40793,161 1031.73144,41 1061,41 C1090.26856,41 1097.82458,129.785156 1121,129.785156 C1144.17542,129.785156 1144.35531,80.2539063 1161,81 C1177.64469,81.7460938 1178.69149,121 1201,121" id="Path-Copy" stroke="#4A4A4A" stroke-width="2" transform="translate(600.500000, 101.000000) scale(-1, 1) translate(-600.500000, -101.000000) "></path>
    </g>
</svg>
